<svg width="24" height="24" viewBox="0 0 24 24" fill="none" xmlns="http://www.w3.org/2000/svg">
<path fill-rule="evenodd" clip-rule="evenodd" d="M6.885 6.67244L10.529 3.52744C11.3836 2.82419 12.6164 2.82419 13.471 3.52744L17.115 6.67244C17.4887 6.98222 17.7079 7.44011 17.715 7.92544L18 18.0004C18 19.6573 16.6569 21.0004 15 21.0004H9C7.34315 21.0004 6 19.6573 6 18.0004L6.282 7.92544C6.28982 7.43962 6.51021 6.98165 6.885 6.67244Z" stroke="#393825" stroke-width="1.5" stroke-linecap="round" stroke-linejoin="round"/>
<path d="M10 13.2504C9.58579 13.2504 9.25 13.5862 9.25 14.0004C9.25 14.4146 9.58579 14.7504 10 14.7504V13.2504ZM14 14.7504C14.4142 14.7504 14.75 14.4146 14.75 14.0004C14.75 13.5862 14.4142 13.2504 14 13.2504V14.7504ZM9 16.2504C8.58579 16.2504 8.25 16.5862 8.25 17.0004C8.25 17.4146 8.58579 17.7504 9 17.7504V16.2504ZM15 17.7504C15.4142 17.7504 15.75 17.4146 15.75 17.0004C15.75 16.5862 15.4142 16.2504 15 16.2504V17.7504ZM10.5 8.50043L11.25 8.50077L10.5 8.50043ZM11.708 7.02981L11.562 6.29416L11.708 7.02981ZM13.386 7.92762L12.693 8.21436V8.21437L13.386 7.92762ZM12.8329 9.74861L12.4165 9.12486L12.8329 9.74861ZM10.939 9.56143L10.4085 10.0916L10.939 9.56143ZM10 14.7504H14V13.2504H10V14.7504ZM9 17.7504H15V16.2504H9V17.7504ZM11.25 8.50077C11.2502 8.14297 11.503 7.83511 11.854 7.76546L11.562 6.29416C10.5091 6.50312 9.75049 7.4267 9.75 8.50009L11.25 8.50077ZM11.854 7.76546C12.2049 7.6958 12.5562 7.88375 12.693 8.21436L14.0791 7.64088C13.6687 6.64903 12.6148 6.08519 11.562 6.29416L11.854 7.76546ZM12.693 8.21437C12.8298 8.54498 12.714 8.92618 12.4165 9.12486L13.2494 10.3724C14.1421 9.77633 14.4894 8.63272 14.0791 7.64088L12.693 8.21437ZM12.4165 9.12486C12.1189 9.32353 11.7224 9.28435 11.4695 9.03127L10.4085 10.0916C11.1673 10.8508 12.3567 10.9684 13.2494 10.3724L12.4165 9.12486ZM11.4695 9.03127C11.3289 8.89055 11.2499 8.69972 11.25 8.50077L9.75 8.50009C9.74973 9.09693 9.98661 9.66942 10.4085 10.0916L11.4695 9.03127Z" fill="#393825"/>
</svg>
