<svg width="24" height="24" viewBox="0 0 24 24" fill="none" xmlns="http://www.w3.org/2000/svg">
<path fill-rule="evenodd" clip-rule="evenodd" d="M15.0004 8C15.0004 9.65685 13.6572 11 12.0004 11C10.3435 11 9.00037 9.65685 9.00037 8C9.00037 6.34315 10.3435 5 12.0004 5C12.796 5 13.5591 5.31607 14.1217 5.87868C14.6843 6.44129 15.0004 7.20435 15.0004 8Z" stroke="#393825" stroke-width="1.5" stroke-linecap="round" stroke-linejoin="round"/>
<path fill-rule="evenodd" clip-rule="evenodd" d="M14.5674 13H9.43336C9.11059 13.0004 8.79016 13.0548 8.48536 13.161C4.97535 14.372 8.31435 19 12.0004 19C15.6864 19 19.0254 14.372 15.5144 13.161C15.2099 13.0549 14.8898 13.0005 14.5674 13Z" stroke="#393825" stroke-width="1.5" stroke-linecap="round" stroke-linejoin="round"/>
</svg>
