<svg width="100" height="68" viewBox="0 0 100 68" fill="none" xmlns="http://www.w3.org/2000/svg">
<path d="M97.999 65.3747L81.86 34.0627C81.7225 33.7957 81.5179 33.569 81.2663 33.4048C81.0147 33.2406 80.7249 33.1445 80.425 33.1261C80.1252 33.1076 79.8257 33.1674 79.5559 33.2995C79.2861 33.4316 79.0553 33.6316 78.886 33.8798C78.6888 34.1684 78.4089 34.3908 78.0831 34.5176C77.7573 34.6445 77.4008 34.67 77.0603 34.5907C76.7198 34.5115 76.4111 34.3312 76.1748 34.0736C75.9385 33.8159 75.7856 33.4928 75.736 33.1467L71.543 3.71975C71.4753 3.24107 71.2365 2.80314 70.8707 2.48697C70.505 2.17081 70.0371 1.99782 69.5536 2.00002C69.0702 2.00222 68.6039 2.17943 68.2411 2.49891C67.8782 2.81838 67.6434 3.25848 67.58 3.73775L62.328 43.0627C62.266 43.5232 62.0457 43.9477 61.7048 44.2634C61.364 44.5791 60.9238 44.7663 60.46 44.7928C59.9961 44.8193 59.5375 44.6834 59.1629 44.4086C58.7883 44.1338 58.521 43.7371 58.407 43.2867L53.381 23.3577C53.28 22.9567 53.057 22.5968 52.7429 22.3277C52.4288 22.0586 52.0391 21.8935 51.6273 21.8551C51.2154 21.8167 50.8019 21.907 50.4435 22.1134C50.0851 22.3198 49.7995 22.6323 49.626 23.0077L41.296 41.0247C41.1355 41.3705 40.8794 41.6633 40.558 41.8684C40.2366 42.0735 39.8633 42.1825 39.482 42.1825C39.1007 42.1825 38.7275 42.0735 38.4061 41.8684C38.0847 41.6633 37.8286 41.3705 37.668 41.0247L33.224 31.4737L27.684 21.0458C27.5168 20.7309 27.2685 20.4664 26.9648 20.2798C26.6611 20.0931 26.313 19.991 25.9565 19.9841C25.6001 19.9772 25.2483 20.0656 24.9375 20.2403C24.6267 20.415 24.3683 20.6696 24.189 20.9777L15.689 35.5777C15.5449 35.8253 15.3493 36.0389 15.1154 36.2043C14.8815 36.3697 14.6148 36.4829 14.3334 36.5362C14.052 36.5896 13.7624 36.582 13.4843 36.5137C13.2061 36.4455 12.9458 36.3183 12.721 36.1407L6.93701 31.5687C6.70979 31.3891 6.44627 31.261 6.16467 31.1933C5.88308 31.1255 5.59014 31.1197 5.30609 31.1763C5.02204 31.2329 4.75367 31.3505 4.51953 31.521C4.28539 31.6915 4.09107 31.9108 3.95001 32.1637L2 35.6637" stroke="#FF5B5B" stroke-width="4" stroke-linecap="round"/>
</svg>
