<svg width="96" height="63" viewBox="0 0 96 63" fill="none" xmlns="http://www.w3.org/2000/svg">
<path d="M93.5 51.4289L82.5 32.4289L78.6 26.4539C78.3954 26.1408 78.1072 25.8914 77.7681 25.7339C77.4289 25.5764 77.0523 25.5171 76.6812 25.5628C76.31 25.6086 75.9591 25.7574 75.6683 25.9925C75.3775 26.2276 75.1585 26.5395 75.036 26.8929L72.501 34.2139C72.3559 34.6313 72.0766 34.9889 71.7068 35.2308C71.337 35.4727 70.8974 35.5853 70.4568 35.5511C70.0162 35.5168 69.5995 35.3376 69.2715 35.0414C68.9435 34.7452 68.7229 34.3487 68.644 33.9139L63.165 3.64287C63.0802 3.1754 62.8317 2.7534 62.4641 2.45244C62.0965 2.15148 61.6337 1.99123 61.1587 2.00037C60.6837 2.00951 60.2274 2.18745 59.8716 2.50234C59.5158 2.81722 59.2838 3.24847 59.217 3.71886L51.385 59.1189C51.3176 59.5933 51.082 60.0278 50.7212 60.3432C50.3604 60.6586 49.8983 60.8339 49.4191 60.8373C48.9399 60.8407 48.4754 60.6719 48.1101 60.3617C47.7449 60.0514 47.5031 59.6203 47.429 59.1469L41.155 18.9659C41.0828 18.5045 40.8513 18.0829 40.5009 17.7743C40.1504 17.4657 39.7029 17.2894 39.2361 17.2761C38.7693 17.2628 38.3124 17.4133 37.9449 17.7015C37.5774 17.9897 37.3224 18.3974 37.224 18.8539L35.5031 26.8609L33.0031 37.9609L29.114 53.8529C29.0113 54.2721 28.7758 54.6468 28.4426 54.9211C28.1094 55.1954 27.6964 55.3546 27.2653 55.3749C26.8341 55.3951 26.408 55.2754 26.0505 55.0335C25.6931 54.7916 25.4235 54.4406 25.282 54.0329L15.8929 26.9679C15.7696 26.6122 15.5485 26.2985 15.2549 26.0629C14.9612 25.8273 14.607 25.6794 14.233 25.6361C13.8591 25.5929 13.4805 25.6561 13.1409 25.8184C12.8012 25.9808 12.5142 26.2357 12.313 26.5539L7.50403 34.1539C7.29719 34.481 6.9999 34.741 6.64819 34.9025C6.29649 35.064 5.90547 35.12 5.52258 35.0637C5.13969 35.0074 4.78128 34.8412 4.49097 34.5853C4.20066 34.3293 3.99085 33.9947 3.88696 33.6219L2 26.8579" stroke="#00A389" stroke-width="4" stroke-linecap="round"/>
</svg>
