<svg width="137" height="63" viewBox="0 0 137 63" fill="none" xmlns="http://www.w3.org/2000/svg">
<path d="M2 26.8579L3.88696 33.6219C3.99085 33.9947 4.20066 34.3293 4.49097 34.5853C4.78128 34.8412 5.13969 35.0074 5.52258 35.0637C5.90547 35.12 6.29649 35.064 6.64819 34.9025C6.9999 34.741 7.29719 34.481 7.50403 34.1539L12.313 26.5539C12.5142 26.2357 12.8012 25.9808 13.1409 25.8184C13.4805 25.6561 13.8591 25.5929 14.233 25.6361C14.607 25.6794 14.9612 25.8273 15.2549 26.0629C15.5485 26.2985 15.7696 26.6122 15.8929 26.9679L25.282 54.0329C25.4235 54.4406 25.6931 54.7916 26.0505 55.0335C26.408 55.2754 26.8341 55.3951 27.2653 55.3749C27.6964 55.3546 28.1094 55.1954 28.4426 54.9211C28.7758 54.6468 29.0113 54.2721 29.114 53.8529L33.0031 37.9609L35.5031 26.8609L37.224 18.8539C37.3224 18.3974 37.5774 17.9897 37.9449 17.7015C38.3124 17.4133 38.7693 17.2628 39.2361 17.2761C39.7029 17.2894 40.1504 17.4657 40.5009 17.7743C40.8513 18.0829 41.0828 18.5045 41.155 18.9659L47.429 59.1469C47.5031 59.6203 47.7449 60.0514 48.1101 60.3617C48.4754 60.6719 48.9399 60.8407 49.4191 60.8373C49.8983 60.8339 50.3604 60.6586 50.7212 60.3432C51.082 60.0278 51.3176 59.5933 51.385 59.1189L59.217 3.71886C59.2838 3.24847 59.5158 2.81722 59.8716 2.50234C60.2274 2.18745 60.6837 2.00951 61.1587 2.00037C61.6337 1.99123 62.0965 2.15148 62.4641 2.45244C62.8317 2.7534 63.0802 3.1754 63.165 3.64287L68.644 33.9139C68.7229 34.3487 68.9435 34.7452 69.2715 35.0414C69.5995 35.3376 70.0162 35.5168 70.4568 35.5511C70.8974 35.5853 71.337 35.4727 71.7068 35.2308C72.0766 34.9889 72.3559 34.6313 72.501 34.2139L75.036 26.8929C75.1585 26.5395 75.3775 26.2276 75.6683 25.9925C75.9591 25.7574 76.31 25.6086 76.6812 25.5628C77.0523 25.5171 77.4289 25.5764 77.7681 25.7339C78.1072 25.8914 78.3954 26.1408 78.6 26.4539L82.5 32.4289L93.5 51.4289C96.5 56.6192 105.2 62.7 116 45.5C126.8 28.3 132.833 23.6667 134.5 23.5" stroke="white" stroke-width="4" stroke-linecap="round"/>
</svg>
